<?xml version="1.0" encoding="UTF-8"?>
<svg width="80px" height="80px" viewBox="0 0 80 80" version="1.1" xmlns="http://www.w3.org/2000/svg" xmlns:xlink="http://www.w3.org/1999/xlink">
    <title>编组 11</title>
    <g id="页面-1" stroke="none" stroke-width="1" fill="none" fill-rule="evenodd">
        <g id="1" transform="translate(-1140.000000, -192.000000)">
            <g id="编组-11" transform="translate(1140.000000, 192.000000)">
                <circle id="椭圆形备份-4" stroke="#000000" cx="40" cy="40" r="39.5"></circle>
                <g id="shuju2-m" transform="translate(26.000000, 26.000000)" fill="#000000" fill-rule="nonzero">
                    <path d="M4.27,26.88 C4.27,27.496 4.774,28 5.39,28 L22.75,28 C23.366,28 23.87,27.496 23.87,26.88 C23.87,26.264 23.366,25.76 22.75,25.76 L5.39,25.76 C4.774,25.76 4.27,26.264 4.27,26.88 Z M23.8,0 L4.2,0 C1.876,0 0,1.876 0,4.2 L0,19.32 C0,21.644 1.876,23.52 4.2,23.52 L23.8,23.52 C26.124,23.52 28,21.644 28,19.32 L28,4.2 C28,1.876 26.124,0 23.8,0 Z M22.624,9.184 L16.478,15.358 C16.268,15.568 15.988,15.694 15.68,15.694 C15.386,15.694 15.092,15.582 14.882,15.372 L10.906,11.368 L7,15.848 C6.79,16.1 6.468,16.24 6.16,16.24 C5.894,16.24 5.642,16.156 5.432,15.96 C4.97,15.554 4.914,14.84 5.32,14.378 L10.01,8.988 C10.22,8.75 10.5,8.61 10.822,8.61 C11.13,8.596 11.438,8.722 11.648,8.932 L15.694,12.978 L21.042,7.602 C21.476,7.168 22.19,7.168 22.624,7.602 C23.058,8.036 23.058,8.75 22.624,9.184 Z" id="形状"></path>
                </g>
            </g>
        </g>
    </g>
</svg>