<?xml version="1.0" encoding="UTF-8"?>
<svg width="80px" height="80px" viewBox="0 0 80 80" version="1.1" xmlns="http://www.w3.org/2000/svg" xmlns:xlink="http://www.w3.org/1999/xlink">
    <title>编组 12</title>
    <g id="页面-1" stroke="none" stroke-width="1" fill="none" fill-rule="evenodd">
        <g id="1" transform="translate(-1490.000000, -192.000000)">
            <g id="编组-12" transform="translate(1490.000000, 192.000000)">
                <circle id="椭圆形备份-5" stroke="#000000" cx="40" cy="40" r="39.5"></circle>
                <g id="baogaotixing" transform="translate(27.000000, 26.000000)" fill="#000000" fill-rule="nonzero">
                    <path d="M8.49554391,4.27450852 L17.0044561,4.27450852 C18.180865,4.27450852 19.1366972,3.31867628 19.1366972,2.14226737 L19.1366972,2.13224115 C19.1366972,0.955832241 18.180865,4.4408921e-16 17.0044561,4.4408921e-16 L8.49554391,4.4408921e-16 C7.31913499,4.4408921e-16 6.36330275,0.955832241 6.36330275,2.13224115 L6.36330275,2.14226737 C6.36330275,3.31867628 7.31913499,4.27450852 8.49554391,4.27450852 L8.49554391,4.27450852 Z M22.0777195,2.10884666 L20.5537353,2.10884666 L20.5537353,2.13558322 C20.5537353,4.09737877 18.9629096,5.69154653 16.997772,5.69154653 L8.50222805,5.69154653 C6.5404325,5.69154653 4.94626474,4.10072084 4.94626474,2.13558322 L4.94626474,2.10884666 L3.42228047,2.10884666 C1.53401048,2.10884666 0,3.63951507 0,5.53112713 L0,24.2400393 C0,26.1283093 1.53066841,27.6623198 3.42228047,27.6623198 L22.0777195,27.6623198 C23.9659895,27.6623198 25.5,26.1316514 25.5,24.2400393 L25.5,5.53112713 C25.4966579,3.63951507 23.9659895,2.10884666 22.0777195,2.10884666 Z M18.7356488,19.5344037 L6.76435125,19.5344037 C6.29311927,19.5344037 5.90878113,19.1500655 5.90878113,18.6788336 C5.90878113,18.2076016 6.29311927,17.8232634 6.76435125,17.8232634 L18.7356488,17.8232634 C19.2068807,17.8232634 19.5912189,18.2076016 19.5912189,18.6788336 C19.5912189,19.1500655 19.2102228,19.5344037 18.7356488,19.5344037 Z M18.7857798,12.6931848 L6.71422018,12.6931848 C6.26972477,12.6931848 5.90878113,12.3088467 5.90878113,11.8376147 C5.90878113,11.3663827 6.26972477,10.9820446 6.71422018,10.9820446 L18.7891219,10.9820446 C19.2336173,10.9820446 19.5945609,11.3663827 19.5945609,11.8376147 C19.5912189,12.3088467 19.2302752,12.6931848 18.7857798,12.6931848 L18.7857798,12.6931848 Z" id="形状"></path>
                </g>
            </g>
        </g>
    </g>
</svg>