<?xml version="1.0" encoding="UTF-8"?>
<svg width="80px" height="80px" viewBox="0 0 80 80" version="1.1" xmlns="http://www.w3.org/2000/svg" xmlns:xlink="http://www.w3.org/1999/xlink">
    <title>编组 8</title>
    <g id="页面-1" stroke="none" stroke-width="1" fill="none" fill-rule="evenodd">
        <g id="1" transform="translate(-440.000000, -192.000000)">
            <g id="编组-8" transform="translate(440.000000, 192.000000)">
                <circle id="椭圆形备份" stroke="#000000" cx="40" cy="40" r="39.5"></circle>
                <g id="yonghu-3备份" transform="translate(23.000000, 23.000000)">
                    <path d="M20.087776,2.55 C15.9696364,2.55 12.6251104,5.82286803 12.6251104,9.86203763 C12.6251104,13.9012072 15.968174,17.1740753 20.087776,17.1740753 C24.2088404,17.1740753 27.551904,13.9012072 27.551904,9.86203763 C27.551904,5.82286803 24.2117652,2.55 20.087776,2.55 Z M20.087776,2.55 C15.9696364,2.55 12.6251104,5.82286803 12.6251104,9.86203763 C12.6251104,13.9012072 15.968174,17.1740753 20.087776,17.1740753 C24.2088404,17.1740753 27.551904,13.9012072 27.551904,9.86203763 C27.551904,5.82286803 24.2117652,2.55 20.087776,2.55 Z M17.2916528,19.6119086 C11.967027,19.6119086 7.65,23.8411912 7.65,29.0561364 L7.65,29.6630355 C7.65,31.7966881 11.967027,31.7981505 17.2916528,31.7981505 L23.511272,31.7981505 C28.8344354,31.7981505 33.15,31.7191805 33.15,29.6630355 L33.15,29.0561364 C33.15,23.8411912 28.8344354,19.6119086 23.511272,19.6119086 L17.2916528,19.6119086 Z" id="形状" fill="#000000" fill-rule="nonzero"></path>
                    <rect id="矩形" x="0" y="0" width="34" height="34"></rect>
                    <g id="编组-2" transform="translate(7.366667, 17.283333) rotate(-45.000000) translate(-7.366667, -17.283333) translate(2.266667, 12.750000)" stroke="#000000" stroke-linecap="round" stroke-width="2">
                        <line x1="0.566666667" y1="4.25" x2="9.63333333" y2="4.25" id="直线-4"></line>
                        <line x1="5.66666667" y1="0.283333333" x2="9.40557652" y2="3.96666667" id="直线-4备份"></line>
                        <line x1="5.66666667" y1="8.21666667" x2="9.40557652" y2="4.53333333" id="直线-4备份-2"></line>
                    </g>
                </g>
            </g>
        </g>
    </g>
</svg>