<?xml version="1.0" encoding="UTF-8"?>
<svg width="20px" height="19px" viewBox="0 0 20 19" version="1.1" xmlns="http://www.w3.org/2000/svg" xmlns:xlink="http://www.w3.org/1999/xlink">
    <title>编组 3备份 3</title>
    <g id="页面-1" stroke="none" stroke-width="1" fill="none" fill-rule="evenodd">
        <g id="1" transform="translate(-110.000000, -72.000000)" stroke="#FFFFFF" stroke-width="1.4">
            <g id="编组-3备份-3" transform="translate(111.000000, 73.000000)">
                <path d="M2,0 L16,0 C17.1045695,-2.02906125e-16 18,0.8954305 18,2 L18,14.56 C18,15.6645695 17.1045695,16.56 16,16.56 L11.1333381,16.56 L11.1333381,16.56 L9,13.7411621 L1,13.7411621 C0.44771525,13.7411621 4.50852747e-15,13.2934469 0,12.7411621 L0,2 C-1.3527075e-16,0.8954305 0.8954305,-4.63227689e-16 2,0 Z" id="矩形备份-64" transform="translate(9.000000, 8.280000) rotate(-180.000000) translate(-9.000000, -8.280000) "></path>
                <g id="编组-2备份-2" transform="translate(9.000000, 10.000000) rotate(-270.000000) translate(-9.000000, -10.000000) translate(6.000000, 6.500000)" stroke-linecap="round">
                    <line x1="1.08685954e-13" y1="3.5" x2="5.07692308" y2="3.5" id="直线-4"></line>
                    <line x1="2.76923077" y1="0.5" x2="5.53846154" y2="3.5" id="直线-4备份"></line>
                    <line x1="2.76923077" y1="6.5" x2="5.53846154" y2="3.5" id="直线-4备份-2"></line>
                </g>
            </g>
        </g>
    </g>
</svg>