<?xml version="1.0" encoding="UTF-8"?>
<svg width="80px" height="80px" viewBox="0 0 80 80" version="1.1" xmlns="http://www.w3.org/2000/svg" xmlns:xlink="http://www.w3.org/1999/xlink">
    <title>编组 10</title>
    <g id="页面-1" stroke="none" stroke-width="1" fill="none" fill-rule="evenodd">
        <g id="1" transform="translate(-790.000000, -192.000000)">
            <g id="编组-10" transform="translate(790.000000, 192.000000)">
                <circle id="椭圆形备份-3" stroke="#000000" cx="40" cy="40" r="39.5"></circle>
                <g id="xiazai-wenjianxiazai-12-2" transform="translate(26.000000, 27.000000)" fill="#000000" fill-rule="nonzero">
                    <path d="M26,4.24999998 L14.25,4.24999998 L11,0.34999998 C10.8,0.0999999902 10.55,6.24500451e-16 10.25,6.24500451e-16 L2,6.24500451e-16 C0.899999999,6.24500451e-16 4.16333634e-16,0.899999999 4.16333634e-16,2 L4.16333634e-16,24.6 C4.16333634e-16,25.7 0.899999999,26.6 2,26.6 L26,26.6 C27.1,26.6 28,25.7 28,24.6 L28,6.24999999 C28,5.14999998 27.1,4.24999998 26,4.24999998 Z M18.95,16.85 L14.7,21.1 C14.6,21.2 14.5,21.3 14.35,21.35 L14.25,21.4 C14.2,21.4 14.15,21.45 14.1,21.45 L13.9,21.45 C13.65,21.45 13.45,21.35 13.3,21.15 L9.05,16.9 C8.84999999,16.7 8.75,16.45 8.75,16.2 C8.75,15.95 8.84999999,15.7 9.05,15.5 C9.44999999,15.1 10.1,15.1 10.45,15.5 L13,18.05 L13,10.45 C13,9.89999999 13.45,9.44999999 14,9.44999999 C14.55,9.44999999 15,9.89999999 15,10.45 L15,18 L17.55,15.45 C17.95,15.05 18.6,15.05 18.95,15.45 C19.15,15.65 19.25,15.9 19.25,16.15 C19.25,16.4 19.15,16.65 18.95,16.85 L18.95,16.85 Z" id="形状"></path>
                </g>
            </g>
        </g>
    </g>
</svg>