<?xml version="1.0" encoding="UTF-8"?>
<svg width="20px" height="21px" viewBox="0 0 20 21" version="1.1" xmlns="http://www.w3.org/2000/svg" xmlns:xlink="http://www.w3.org/1999/xlink">
    <title>sousuo</title>
    <g id="页面-1" stroke="none" stroke-width="1" fill="none" fill-rule="evenodd">
        <g id="4" transform="translate(-110.000000, -1004.000000)" fill="#1A874F" fill-rule="nonzero">
            <g id="sousuo" transform="translate(110.000000, 1004.000000)">
                <path d="M19.89783,19.5954471 L16.6517364,16.346769 C18.3135503,14.6100056 19.3421691,12.2607229 19.3421691,9.6659156 C19.3421691,4.32898627 15.0105983,0 9.67108454,0 C4.32898627,0 0,4.32898627 0,9.6659156 C0,15.0054294 4.33157073,19.3344157 9.67108454,19.3344157 C11.8678835,19.3344157 13.8837697,18.5952574 15.5094009,17.3624655 L18.8201063,20.6757553 C18.8898869,20.745536 18.9855123,20.7791341 19.09406,20.7791341 C19.2853108,20.7791341 19.517913,20.6757553 19.7091637,20.4845046 C20.0037933,20.1847061 20.0890807,19.7866978 19.89783,19.5954471 Z M1.52483695,9.6659156 C1.52483695,5.1792767 5.1792767,1.52742142 9.67108454,1.52742142 C14.1628924,1.52742142 17.8173321,5.1792767 17.8173321,9.6659156 C17.8173321,14.155139 14.1628924,17.8069942 9.67108454,17.8069942 C5.1792767,17.8069942 1.52483695,14.155139 1.52483695,9.6659156 Z" id="形状"></path>
            </g>
        </g>
    </g>
</svg>