<?xml version="1.0" encoding="UTF-8"?>
<svg width="40px" height="40px" viewBox="0 0 40 40" version="1.1" xmlns="http://www.w3.org/2000/svg" xmlns:xlink="http://www.w3.org/1999/xlink">
    <title>yonghu-3</title>
    <g id="页面-1" stroke="none" stroke-width="1" fill="none" fill-rule="evenodd">
        <g id="17" transform="translate(-69.000000, -170.000000)">
            <g id="yonghu-3" transform="translate(69.000000, 170.000000)">
                <path d="M19.6326776,3 C14.7878075,3 10.8530711,6.85043298 10.8530711,11.6023972 C10.8530711,16.3543614 14.7860871,20.2047944 19.6326776,20.2047944 C24.4809887,20.2047944 28.4140047,16.3543614 28.4140047,11.6023972 C28.4140047,6.85043298 24.4844297,3 19.6326776,3 Z M19.6326776,3 C14.7878075,3 10.8530711,6.85043298 10.8530711,11.6023972 C10.8530711,16.3543614 14.7860871,20.2047944 19.6326776,20.2047944 C24.4809887,20.2047944 28.4140047,16.3543614 28.4140047,11.6023972 C28.4140047,6.85043298 24.4844297,3 19.6326776,3 Z M16.343121,23.0728336 C10.0788553,23.0728336 5,28.0484602 5,34.1836899 L5,34.8976888 C5,37.4078683 10.0788553,37.4095888 16.343121,37.4095888 L23.66032,37.4095888 C29.9228652,37.4095888 35,37.3166829 35,34.8976888 L35,34.1836899 C35,28.0484602 29.9228652,23.0728336 23.66032,23.0728336 L16.343121,23.0728336 Z" id="形状" fill="#000000" fill-rule="nonzero"></path>
                <rect id="矩形" x="0" y="0" width="40" height="40"></rect>
            </g>
        </g>
    </g>
</svg>