<?xml version="1.0" encoding="UTF-8"?>
<svg width="17px" height="19px" viewBox="0 0 17 19" version="1.1" xmlns="http://www.w3.org/2000/svg" xmlns:xlink="http://www.w3.org/1999/xlink">
    <title>tianjia-2</title>
    <g id="页面-1" stroke="none" stroke-width="1">
        <g id="1" transform="translate(-54.000000, -72.000000)">
            <g id="tianjia-2" transform="translate(54.000000, 72.000000)">
                <path d="M8.9278923,9.96997599 C6.17475945,9.96997599 3.94290431,7.73812084 3.94290431,4.984988 C3.94290431,2.23185515 6.17475945,0 8.9278923,0 C11.6810251,0 13.9128803,2.23185515 13.9128803,4.984988 C13.9128803,7.73812084 11.6810251,9.96997599 8.9278923,9.96997599 L8.9278923,9.96997599 Z M8.9278923,1.45125936 C8.00033982,1.45035697 7.11051763,1.81842546 6.45463867,2.47430442 C5.79875971,3.13018337 5.43069122,4.02000557 5.43159361,4.94755805 C5.43069122,5.87511053 5.79875971,6.76493273 6.45463867,7.42081169 C7.11051763,8.07669065 8.00033982,8.44475913 8.9278923,8.44385675 C9.85544478,8.44475914 10.745267,8.07669065 11.4011459,7.42081169 C12.0570249,6.76493273 12.4250934,5.87511053 12.424191,4.94755805 C12.424191,3.05054043 10.8623399,1.45125936 8.9278923,1.45125936 L8.9278923,1.45125936 Z" id="形状"></path>
                <path d="M0.744345481,18.1909528 C0.33364297,18.1900172 0.000935555631,17.8573098 0,17.4466073 C0,12.5364792 4.01776421,8.51871497 8.9278923,8.51871497 C9.33706965,8.51871497 9.67223778,8.8538831 9.67223778,9.26306045 C9.67130224,9.67376297 9.33859482,10.0064704 8.9278923,10.0074059 C4.83611889,10.0074059 1.48784027,13.3548339 1.48784027,17.4466073 C1.4869068,17.8569789 1.15471574,18.18955 0.744345481,18.1909528 L0.744345481,18.1909528 Z M16.2565052,14.8426741 L10.5271717,14.8426741 C10.1171323,14.8412739 9.78507721,14.5092188 9.78367694,14.0991793 C9.78367694,13.690002 10.1179944,13.3548339 10.5271717,13.3548339 L16.2565052,13.3548339 C16.6648318,13.3548339 17,13.690002 17,14.0991793 C16.9985997,14.5092188 16.6665446,14.8412739 16.2565052,14.8426741 L16.2565052,14.8426741 Z" id="形状"></path>
                <path d="M13.3914131,17.7077662 C12.9810429,17.7063635 12.6488518,17.3737923 12.6479183,16.9634207 L12.6479183,11.2340873 C12.6479183,10.8249099 12.9822358,10.4897418 13.3914131,10.4897418 C13.8005904,10.4897418 14.1357586,10.8249099 14.1357586,11.2340873 L14.1357586,16.9625701 C14.1343559,17.3729403 13.8017847,17.7051314 13.3914131,17.7060648 L13.3914131,17.7077662 Z" id="路径"></path>
            </g>
        </g>
    </g>
</svg>