<?xml version="1.0" encoding="UTF-8"?>
<svg width="80px" height="80px" viewBox="0 0 80 80" version="1.1" xmlns="http://www.w3.org/2000/svg" xmlns:xlink="http://www.w3.org/1999/xlink">
    <title>编组 7</title>
    <g id="页面-1" stroke="none" stroke-width="1" fill="none" fill-rule="evenodd">
        <g id="1" transform="translate(-300.000000, -192.000000)">
            <g id="编组-7" transform="translate(300.000000, 192.000000)">
                <circle id="椭圆形" stroke="#000000" cx="40" cy="40" r="39.5"></circle>
                <g id="yonghu-3" transform="translate(23.000000, 23.000000)">
                    <path d="M19.237776,2.55 C15.1196364,2.55 11.7751104,5.82286803 11.7751104,9.86203763 C11.7751104,13.9012072 15.118174,17.1740753 19.237776,17.1740753 C23.3588404,17.1740753 26.701904,13.9012072 26.701904,9.86203763 C26.701904,5.82286803 23.3617652,2.55 19.237776,2.55 Z M19.237776,2.55 C15.1196364,2.55 11.7751104,5.82286803 11.7751104,9.86203763 C11.7751104,13.9012072 15.118174,17.1740753 19.237776,17.1740753 C23.3588404,17.1740753 26.701904,13.9012072 26.701904,9.86203763 C26.701904,5.82286803 23.3617652,2.55 19.237776,2.55 Z M16.4416528,19.6119086 C11.117027,19.6119086 6.8,23.8411912 6.8,29.0561364 L6.8,29.6630355 C6.8,31.7966881 11.117027,31.7981505 16.4416528,31.7981505 L22.661272,31.7981505 C27.9844354,31.7981505 32.3,31.7191805 32.3,29.6630355 L32.3,29.0561364 C32.3,23.8411912 27.9844354,19.6119086 22.661272,19.6119086 L16.4416528,19.6119086 Z" id="形状" fill="#000000" fill-rule="nonzero"></path>
                    <rect id="矩形" x="0" y="0" width="34" height="34"></rect>
                    <line x1="2.975" y1="16.575" x2="9.775" y2="16.575" id="直线-3" stroke="#000000" stroke-width="2" stroke-linecap="round"></line>
                    <line x1="6.375" y1="13.175" x2="6.375" y2="19.975" id="直线-3备份" stroke="#000000" stroke-width="2" stroke-linecap="round"></line>
                </g>
            </g>
        </g>
    </g>
</svg>